HIERARCHY
ROOT Hips
{
 OFFSET 0.000000 0.000000 0.000000
 CHANNELS 6 Xposition Yposition Zposition Yrotation Xrotation Zrotation
 JOINT Chest
 {
  OFFSET 0.000000 9.585900 0.002600
  CHANNELS 3 Yrotation Xrotation Zrotation
  JOINT Chest2
  {
   OFFSET 0.000000 9.601200 -0.005300
   CHANNELS 3 Yrotation Xrotation Zrotation
   JOINT Chest3
   {
    OFFSET 0.000000 9.561800 0.000000
    CHANNELS 3 Yrotation Xrotation Zrotation
    JOINT Chest4
    {
     OFFSET 0.000000 9.552100 0.000000
     CHANNELS 3 Yrotation Xrotation Zrotation
     JOINT Neck
     {
      OFFSET 0.000000 14.453000 0.000000
      CHANNELS 3 Yrotation Xrotation Zrotation
      JOINT Head
      {
       OFFSET 0.000000 8.936500 -0.011300
       CHANNELS 3 Yrotation Xrotation Zrotation
       End Site
       {
        OFFSET 0.000000 17.073600 -0.006000
       }
      }
     }
     JOINT RightCollar
     {
      OFFSET -2.921100 9.558500 0.000000
      CHANNELS 3 Yrotation Xrotation Zrotation
      JOINT RightShoulder
      {
       OFFSET -13.519700 0.000000 0.000000
       CHANNELS 3 Yrotation Xrotation Zrotation
       JOINT RightElbow
       {
        OFFSET 0.000000 -29.696600 0.000000
        CHANNELS 3 Yrotation Xrotation Zrotation
        JOINT RightWrist
        {
         OFFSET 0.000000 -24.004700 0.000000
         CHANNELS 3 Yrotation Xrotation Zrotation
         End Site
         {
          OFFSET 0.000000 -17.728500 0.000000
         }
        }
       }
      }
     }
     JOINT LeftCollar
     {
      OFFSET 2.921100 9.558500 0.000000
      CHANNELS 3 Yrotation Xrotation Zrotation
      JOINT LeftShoulder
      {
       OFFSET 13.519700 0.000000 0.000000
       CHANNELS 3 Yrotation Xrotation Zrotation
       JOINT LeftElbow
       {
        OFFSET 0.000000 -29.696600 0.000000
        CHANNELS 3 Yrotation Xrotation Zrotation
        JOINT LeftWrist
        {
         OFFSET 0.000000 -24.004700 0.000000
         CHANNELS 3 Yrotation Xrotation Zrotation
         End Site
         {
          OFFSET 0.000000 -17.728500 0.000000
         }
        }
       }
      }
     }
    }
   }
  }
 }
 JOINT RightHip
 {
  OFFSET -7.771700 -0.012900 -0.001300
  CHANNELS 3 Yrotation Xrotation Zrotation
  JOINT RightKnee
  {
   OFFSET 0.000000 -40.869800 0.001200
   CHANNELS 3 Yrotation Xrotation Zrotation
   JOINT RightAnkle
   {
    OFFSET 0.000000 -39.717900 0.002100
    CHANNELS 3 Yrotation Xrotation Zrotation
    JOINT RightToe
    {
     OFFSET 0.000000 -4.965400 11.033500
     CHANNELS 3 Yrotation Xrotation Zrotation
     End Site
     {
      OFFSET 0.000000 -1.423100 5.872300
     }
    }
   }
  }
 }
 JOINT LeftHip
 {
  OFFSET 7.771700 -0.012900 -0.001300
  CHANNELS 3 Yrotation Xrotation Zrotation
  JOINT LeftKnee
  {
   OFFSET 0.000000 -40.869800 0.001200
   CHANNELS 3 Yrotation Xrotation Zrotation
   JOINT LeftAnkle
   {
    OFFSET 0.000000 -39.717900 0.002100
    CHANNELS 3 Yrotation Xrotation Zrotation
    JOINT LeftToe
    {
     OFFSET 0.000000 -4.965400 11.033500
     CHANNELS 3 Yrotation Xrotation Zrotation
     End Site
     {
      OFFSET 0.000000 -1.423100 5.872300
     }
    }
   }
  }
 }
}
MOTION
Frames: 6
Frame Time: 0.008333
0.000000 85.388000 0.000000 0.000000 -5.767877 0.000000 0.000000 11.653817 0.000000 0.000000 -5.885947 0.000000 0.000000 -0.000000 0.000000 0.000000 -0.000000 0.000000 0.000000 12.528835 0.000000 0.000000 0.711642 0.000000 0.000000 -0.000000 0.000000 0.000000 0.000000 -90.000000 0.000000 -2.309062 0.000000 0.000000 2.309062 0.000000 0.000000 -0.000000 0.000000 0.000000 -0.000000 90.000000 0.000000 -2.309062 0.000000 0.000000 2.309062 0.000000 0.000000 8.520406 0.000000 0.000000 1.905762 0.000000 -0.000000 -4.658285 0.000000 0.000000 -0.000000 0.000000 0.000000 8.520406 0.000000 0.000000 1.905762 0.000000 -0.000000 -4.658285 0.000000 0.000000 -0.000000 0.000000
16.252373 50.025861 54.959694 172.321185 -33.713947 -6.406395 7.861959 24.184257 8.049150 1.045818 4.047028 0.898599 1.709752 6.499499 1.467985 6.098445 20.108917 5.424276 -2.385034 19.916479 0.446578 -4.482435 1.240355 1.532342 -2.751002 0.434954 -5.495119 4.675816 -6.722986 -4.459251 -121.076091 -46.547839 133.070360 1.185637 -1.175077 77.941375 -14.760908 0.664223 2.668410 8.525339 -12.298649 4.805001 115.709182 -41.916778 -143.403857 23.104572 18.965928 -71.871515 -0.043691 -47.011819 10.387144 -123.217714 84.909872 -111.338330 -2.433923 -12.481261 -4.375506 -0.212381 0.791500 -0.094985 -7.847757 -50.882577 16.308499 -151.061326 81.013696 -158.560722 0.506871 -16.355238 8.037105 -0.390325 -0.955042 -0.196219
16.249048 50.029499 54.964723 172.268797 -33.670507 -6.382654 7.917616 24.197234 8.051080 1.060335 4.109487 0.898213 1.719466 6.499200 1.469052 6.129827 20.137288 5.421002 -2.417223 19.980804 0.493208 -4.553422 1.362809 1.624577 -2.725516 0.415796 -5.546546 4.615360 -6.890077 -4.541133 -120.573361 -45.635685 133.113808 0.575902 -1.210958 77.254927 -14.879947 0.644897 2.668553 8.337735 -12.754648 4.720171 114.820760 -41.054415 -143.074227 24.753557 18.822810 -69.947015 -0.012962 -47.060591 10.403923 -123.068902 84.934037 -111.194499 -2.478768 -12.454908 -4.377726 -0.171733 0.818710 -0.089464 -7.741879 -50.945673 16.244137 -151.267910 81.033484 -158.706420 0.500973 -16.290764 8.067997 -0.390538 -0.975780 -0.228607
16.247277 50.034652 54.969300 172.227372 -33.625447 -6.381719 7.959799 24.166853 8.068695 1.074000 4.193861 0.899025 1.733127 6.523725 1.470036 6.160881 20.166375 5.417862 -2.451700 20.028047 0.533216 -4.626949 1.453462 1.706060 -2.733489 0.318301 -5.565464 4.600263 -7.006382 -4.640724 -120.069507 -44.749277 133.115665 -0.062878 -1.250786 76.496965 -15.004238 0.617427 2.671949 8.131283 -13.184735 4.622830 114.047741 -40.273971 -142.779465 26.374215 18.596531 -67.918348 -0.011489 -47.110617 10.441336 -122.974779 84.973317 -111.112321 -2.488592 -12.393050 -4.394415 -0.207524 0.816728 -0.074796 -7.653598 -51.002019 16.191278 -151.456678 81.055645 -158.826779 0.517350 -16.258973 8.085123 -0.421234 -0.930963 -0.238538
16.241105 50.042024 54.969266 172.211121 -33.595922 -6.372855 7.987932 24.223660 8.069354 1.084912 4.215713 0.902775 1.747201 6.549228 1.471184 6.192492 20.196641 5.414966 -2.488674 20.059854 0.567183 -4.703575 1.515398 1.777812 -2.689084 0.289791 -5.643166 4.517314 -7.216947 -4.675794 -119.568376 -43.897893 133.087139 -0.723389 -1.297671 75.657328 -15.141502 0.578437 2.680996 7.915657 -13.586548 4.509371 113.420203 -39.587017 -142.535300 27.970802 18.254073 -65.821240 -0.008992 -47.143835 10.450856 -122.878912 84.981981 -111.019679 -2.548552 -12.330872 -4.391650 -0.194402 0.796390 -0.072896 -7.549244 -51.042599 16.087931 -151.634745 81.078845 -158.930519 0.536195 -16.221887 8.094714 -0.429183 -0.928266 -0.250755
16.232661 50.047836 54.970258 172.178877 -33.546010 -6.350022 8.026849 24.263806 8.067073 1.091716 4.236096 0.901653 1.761706 6.574373 1.472441 6.225441 20.226086 5.412673 -2.527288 20.079629 0.595212 -4.781721 1.554816 1.839544 -2.642936 0.234896 -5.721581 4.436981 -7.423411 -4.695882 -119.074992 -43.097117 133.026591 -1.398893 -1.346993 74.747308 -15.286758 0.532688 2.695322 7.692829 -13.964264 4.380243 112.939878 -39.002346 -142.339756 29.521974 17.771313 -63.717672 0.013773 -47.194872 10.445065 -122.797281 84.991918 -110.942027 -2.575982 -12.304094 -4.390096 -0.179568 0.809866 -0.072413 -7.454638 -51.101080 16.004375 -151.784671 81.100808 -159.028258 0.548230 -16.184701 8.108895 -0.429201 -0.926147 -0.257671
